# xmcd CD database file
#
# Track frame offsets:
#	150
#	32192
#	61320
#	90867
#	111668
#	145879
#	177013
#	215504
#	245847
#	273292
#	309730
#
# Disc length: 4431 seconds
#
# Revision: 0
# Processed by: cddbd v1.5.2PL0 Copyright (c) Steve Scherf et al.
# Submitted via: CDex 1.51
#
DISCID=a0114d0b
DTITLE=Marcin Wasilewski Trio - Spark Of Life
DYEAR=2014
DGENRE=Jazz
TTITLE0=Austin
TTITLE1=Sudovian Dance
TTITLE2=Spark Of Life
TTITLE3=Do rycerzy, do szlachty, do mieszczan
TTITLE4=Message In A Bottle
TTITLE5=Sleep Safe And Warm
TTITLE6=Three Reflections
TTITLE7=Still
TTITLE8=Actual Proof
TTITLE9=Largo
TTITLE10=Spark Of Life
EXTD=YEAR: 2014
EXTT0=
EXTT1=
EXTT2=
EXTT3=
EXTT4=
EXTT5=
EXTT6=
EXTT7=
EXTT8=
EXTT9=
EXTT10=
PLAYORDER=
